<svg version="1.1" viewBox="0.0 0.0 960.0 540.0" fill="none" stroke="none" stroke-linecap="square" stroke-miterlimit="10" xmlns:xlink="http://www.w3.org/1999/xlink" xmlns="http://www.w3.org/2000/svg"><clipPath id="g3682d8005b8_0_13.0"><path d="m0 0l960.0 0l0 540.0l-960.0 0l0 -540.0z" clip-rule="nonzero"/></clipPath><g clip-path="url(#g3682d8005b8_0_13.0)"><path fill="#000000" fill-opacity="0.0" d="m0 0l960.0 0l0 540.0l-960.0 0z" fill-rule="evenodd"/><path fill="#000000" d="m590.9925 66.3597l0 0c59.39453 59.394524 57.850464 157.23618 -3.4487915 218.53543q-86.1832 86.18317 -112.8992 231.8335q-22.131012 -144.87946 -105.63626 -228.38467l0 0c-59.39453 -59.39453 -57.850433 -157.23619 3.448822 -218.53545l0 0c61.299255 -61.299255 159.1409 -62.843346 218.53543 -3.4488144z" fill-rule="evenodd"/><path stroke="#595959" stroke-width="1.0" stroke-linejoin="round" stroke-linecap="butt" d="m590.9925 66.3597l0 0c59.39453 59.394524 57.850464 157.23618 -3.4487915 218.53543q-86.1832 86.18317 -112.8992 231.8335q-22.131012 -144.87946 -105.63626 -228.38467l0 0c-59.39453 -59.39453 -57.850433 -157.23619 3.448822 -218.53545l0 0c61.299255 -61.299255 159.1409 -62.843346 218.53543 -3.4488144z" fill-rule="evenodd"/><path fill="#ffffff" d="m410.31497 177.3517l0 0c0 -43.730515 31.199036 -79.1811 69.68503 -79.1811l0 0c18.481628 0 36.2063 8.34227 49.27478 23.191612c13.068481 14.849335 20.410278 34.989365 20.410278 55.989487l0 0c0 43.730515 -31.199097 79.18111 -69.68506 79.18111l0 0c-38.485992 0 -69.68503 -35.450592 -69.68503 -79.18111z" fill-rule="evenodd"/><path stroke="#595959" stroke-width="1.0" stroke-linejoin="round" stroke-linecap="butt" d="m410.31497 177.3517l0 0c0 -43.730515 31.199036 -79.1811 69.68503 -79.1811l0 0c18.481628 0 36.2063 8.34227 49.27478 23.191612c13.068481 14.849335 20.410278 34.989365 20.410278 55.989487l0 0c0 43.730515 -31.199097 79.18111 -69.68506 79.18111l0 0c-38.485992 0 -69.68503 -35.450592 -69.68503 -79.18111z" fill-rule="evenodd"/></g></svg>