<svg width="114" height="119" viewBox="0 0 114 119" fill="none" xmlns="http://www.w3.org/2000/svg">
<rect x="0.5" y="0.5" width="113" height="118" stroke="black"/>
<path d="M38.58 56.12C38.748 56.136 38.92 56.152 39.096 56.168C39.28 56.184 39.468 56.192 39.66 56.192C39.804 56.192 40.036 56.192 40.356 56.192C40.684 56.192 41.056 56.192 41.472 56.192C41.888 56.192 42.304 56.192 42.72 56.192C43.136 56.192 43.504 56.192 43.824 56.192C44.152 56.192 44.384 56.192 44.52 56.192C44.688 56.192 44.872 56.188 45.072 56.18C45.28 56.164 45.468 56.144 45.636 56.12V57.116C45.46 57.1 45.272 57.092 45.072 57.092C44.88 57.084 44.696 57.08 44.52 57.08C44.384 57.08 44.156 57.08 43.836 57.08C43.516 57.08 43.148 57.08 42.732 57.08C42.316 57.08 41.9 57.08 41.484 57.08C41.068 57.08 40.696 57.08 40.368 57.08C40.04 57.08 39.808 57.08 39.672 57.08C39.48 57.08 39.288 57.084 39.096 57.092C38.904 57.092 38.732 57.1 38.58 57.116V56.12ZM37.14 59.132C37.308 59.148 37.476 59.164 37.644 59.18C37.82 59.188 38 59.192 38.184 59.192C38.288 59.192 38.492 59.192 38.796 59.192C39.108 59.192 39.484 59.192 39.924 59.192C40.372 59.192 40.852 59.192 41.364 59.192C41.876 59.192 42.388 59.192 42.9 59.192C43.412 59.192 43.888 59.192 44.328 59.192C44.768 59.192 45.14 59.192 45.444 59.192C45.756 59.192 45.956 59.192 46.044 59.192C46.172 59.192 46.324 59.188 46.5 59.18C46.676 59.172 46.836 59.156 46.98 59.132V60.128C46.852 60.12 46.7 60.116 46.524 60.116C46.356 60.108 46.196 60.104 46.044 60.104C45.956 60.104 45.756 60.104 45.444 60.104C45.14 60.104 44.768 60.104 44.328 60.104C43.888 60.104 43.412 60.104 42.9 60.104C42.388 60.104 41.876 60.104 41.364 60.104C40.852 60.104 40.372 60.104 39.924 60.104C39.484 60.104 39.108 60.104 38.796 60.104C38.492 60.104 38.288 60.104 38.184 60.104C38.008 60.104 37.832 60.104 37.656 60.104C37.48 60.104 37.308 60.112 37.14 60.128V59.132ZM42.792 59.624C42.792 60.376 42.736 61.068 42.624 61.7C42.52 62.324 42.336 62.884 42.072 63.38C41.928 63.652 41.732 63.924 41.484 64.196C41.244 64.46 40.972 64.712 40.668 64.952C40.372 65.192 40.052 65.4 39.708 65.576L38.82 64.916C39.284 64.724 39.72 64.464 40.128 64.136C40.536 63.808 40.856 63.456 41.088 63.08C41.392 62.6 41.584 62.072 41.664 61.496C41.744 60.912 41.784 60.288 41.784 59.624H42.792ZM52.704 56.516C52.672 56.364 52.636 56.22 52.596 56.084C52.564 55.948 52.524 55.82 52.476 55.7L53.556 55.508C53.564 55.62 53.58 55.756 53.604 55.916C53.628 56.068 53.648 56.208 53.664 56.336C53.68 56.416 53.716 56.604 53.772 56.9C53.828 57.188 53.896 57.552 53.976 57.992C54.064 58.432 54.16 58.908 54.264 59.42C54.368 59.932 54.472 60.448 54.576 60.968C54.68 61.488 54.776 61.976 54.864 62.432C54.952 62.888 55.028 63.276 55.092 63.596C55.164 63.916 55.212 64.132 55.236 64.244C55.276 64.42 55.32 64.604 55.368 64.796C55.416 64.988 55.468 65.168 55.524 65.336L54.432 65.54C54.4 65.34 54.372 65.148 54.348 64.964C54.324 64.772 54.292 64.588 54.252 64.412C54.236 64.308 54.196 64.1 54.132 63.788C54.076 63.468 54.004 63.084 53.916 62.636C53.828 62.188 53.732 61.708 53.628 61.196C53.524 60.676 53.42 60.16 53.316 59.648C53.22 59.136 53.128 58.66 53.04 58.22C52.952 57.78 52.876 57.408 52.812 57.104C52.756 56.8 52.72 56.604 52.704 56.516ZM49.32 58.244C49.464 58.236 49.616 58.228 49.776 58.22C49.944 58.204 50.124 58.184 50.316 58.16C50.5 58.136 50.756 58.104 51.084 58.064C51.412 58.016 51.78 57.964 52.188 57.908C52.604 57.844 53.032 57.776 53.472 57.704C53.92 57.632 54.352 57.564 54.768 57.5C55.184 57.428 55.56 57.364 55.896 57.308C56.232 57.252 56.496 57.204 56.688 57.164C56.864 57.132 57.024 57.1 57.168 57.068C57.32 57.028 57.444 56.992 57.54 56.96L57.744 57.98C57.656 57.988 57.528 58.004 57.36 58.028C57.2 58.044 57.04 58.064 56.88 58.088C56.672 58.12 56.396 58.164 56.052 58.22C55.708 58.276 55.324 58.34 54.9 58.412C54.484 58.476 54.056 58.544 53.616 58.616C53.176 58.68 52.748 58.748 52.332 58.82C51.924 58.884 51.56 58.944 51.24 59C50.92 59.048 50.672 59.088 50.496 59.12C50.328 59.144 50.168 59.172 50.016 59.204C49.872 59.236 49.708 59.276 49.524 59.324L49.32 58.244ZM49.284 61.712C49.428 61.704 49.6 61.692 49.8 61.676C50 61.652 50.18 61.628 50.34 61.604C50.556 61.58 50.844 61.54 51.204 61.484C51.572 61.428 51.984 61.364 52.44 61.292C52.904 61.212 53.38 61.132 53.868 61.052C54.364 60.972 54.844 60.892 55.308 60.812C55.772 60.732 56.196 60.66 56.58 60.596C56.972 60.524 57.284 60.468 57.516 60.428C57.748 60.388 57.952 60.348 58.128 60.308C58.304 60.268 58.456 60.232 58.584 60.2L58.776 61.208C58.656 61.216 58.5 61.236 58.308 61.268C58.124 61.292 57.92 61.324 57.696 61.364C57.432 61.404 57.1 61.456 56.7 61.52C56.308 61.584 55.88 61.656 55.416 61.736C54.952 61.808 54.476 61.884 53.988 61.964C53.508 62.036 53.044 62.112 52.596 62.192C52.148 62.264 51.748 62.332 51.396 62.396C51.044 62.452 50.764 62.5 50.556 62.54C50.324 62.58 50.12 62.616 49.944 62.648C49.776 62.68 49.628 62.716 49.5 62.756L49.284 61.712ZM69.2367 56.972C69.1967 57.02 69.1447 57.1 69.0807 57.212C69.0247 57.316 68.9767 57.412 68.9367 57.5C68.7847 57.892 68.5847 58.328 68.3367 58.808C68.0887 59.28 67.8127 59.748 67.5087 60.212C67.2047 60.676 66.8847 61.096 66.5487 61.472C66.1087 61.968 65.6247 62.452 65.0967 62.924C64.5687 63.388 64.0127 63.824 63.4287 64.232C62.8447 64.632 62.2367 64.976 61.6047 65.264L60.8367 64.46C61.4847 64.204 62.1047 63.888 62.6967 63.512C63.2967 63.128 63.8567 62.712 64.3767 62.264C64.9047 61.808 65.3727 61.352 65.7807 60.896C66.0527 60.584 66.3207 60.236 66.5847 59.852C66.8567 59.46 67.0967 59.064 67.3047 58.664C67.5207 58.256 67.6767 57.888 67.7727 57.56C67.7087 57.56 67.5567 57.56 67.3167 57.56C67.0767 57.56 66.7927 57.56 66.4647 57.56C66.1367 57.56 65.7927 57.56 65.4327 57.56C65.0727 57.56 64.7287 57.56 64.4007 57.56C64.0727 57.56 63.7887 57.56 63.5487 57.56C63.3167 57.56 63.1647 57.56 63.0927 57.56C62.9567 57.56 62.8007 57.564 62.6247 57.572C62.4567 57.58 62.3007 57.588 62.1567 57.596C62.0207 57.604 61.9287 57.612 61.8807 57.62V56.528C61.9367 56.536 62.0367 56.548 62.1807 56.564C62.3327 56.572 62.4927 56.58 62.6607 56.588C62.8287 56.596 62.9727 56.6 63.0927 56.6C63.1807 56.6 63.3407 56.6 63.5727 56.6C63.8047 56.6 64.0807 56.6 64.4007 56.6C64.7287 56.6 65.0687 56.6 65.4207 56.6C65.7727 56.6 66.1087 56.6 66.4287 56.6C66.7567 56.6 67.0367 56.6 67.2687 56.6C67.5007 56.6 67.6527 56.6 67.7247 56.6C67.9247 56.6 68.1007 56.592 68.2527 56.576C68.4127 56.56 68.5367 56.536 68.6247 56.504L69.2367 56.972ZM66.7047 60.836C67.0327 61.108 67.3687 61.408 67.7127 61.736C68.0647 62.064 68.4087 62.404 68.7447 62.756C69.0807 63.1 69.3927 63.432 69.6807 63.752C69.9687 64.064 70.2167 64.348 70.4247 64.604L69.5847 65.324C69.3047 64.94 68.9687 64.528 68.5767 64.088C68.1847 63.64 67.7687 63.196 67.3287 62.756C66.8967 62.308 66.4607 61.896 66.0207 61.52L66.7047 60.836ZM75.6807 63.944C75.6807 63.832 75.6807 63.608 75.6807 63.272C75.6807 62.928 75.6807 62.524 75.6807 62.06C75.6807 61.588 75.6807 61.096 75.6807 60.584C75.6807 60.064 75.6807 59.56 75.6807 59.072C75.6807 58.584 75.6807 58.152 75.6807 57.776C75.6807 57.4 75.6807 57.128 75.6807 56.96C75.6807 56.792 75.6727 56.588 75.6567 56.348C75.6407 56.108 75.6167 55.896 75.5847 55.712H76.7607C76.7447 55.888 76.7247 56.096 76.7007 56.336C76.6847 56.576 76.6767 56.784 76.6767 56.96C76.6767 57.272 76.6767 57.648 76.6767 58.088C76.6767 58.52 76.6767 58.984 76.6767 59.48C76.6767 59.968 76.6767 60.456 76.6767 60.944C76.6847 61.424 76.6887 61.876 76.6887 62.3C76.6887 62.716 76.6887 63.072 76.6887 63.368C76.6887 63.656 76.6887 63.848 76.6887 63.944C76.6887 64.072 76.6887 64.22 76.6887 64.388C76.6967 64.556 76.7087 64.728 76.7247 64.904C76.7407 65.072 76.7527 65.224 76.7607 65.36H75.5967C75.6287 65.168 75.6487 64.94 75.6567 64.676C75.6727 64.412 75.6807 64.168 75.6807 63.944ZM76.4727 58.856C76.8647 58.976 77.2967 59.12 77.7687 59.288C78.2487 59.448 78.7367 59.62 79.2327 59.804C79.7287 59.988 80.1967 60.176 80.6367 60.368C81.0847 60.552 81.4727 60.728 81.8007 60.896L81.3927 61.916C81.0487 61.724 80.6607 61.536 80.2287 61.352C79.7967 61.16 79.3527 60.972 78.8967 60.788C78.4487 60.604 78.0127 60.44 77.5887 60.296C77.1727 60.144 76.8007 60.02 76.4727 59.924V58.856Z" fill="black"/>
</svg>
