<svg version="1.1" viewBox="0.0 0.0 960.0 540.0" fill="none" stroke="none" stroke-linecap="square" stroke-miterlimit="10" xmlns:xlink="http://www.w3.org/1999/xlink" xmlns="http://www.w3.org/2000/svg"><clipPath id="g3682d8005b8_0_0.0"><path d="m0 0l960.0 0l0 540.0l-960.0 0l0 -540.0z" clip-rule="nonzero"/></clipPath><g clip-path="url(#g3682d8005b8_0_0.0)"><path fill="#ffffff" d="m0 0l960.0 0l0 540.0l-960.0 0z" fill-rule="evenodd"/><path fill="#eeeeee" d="m87.097115 50.67454l804.4725 0l0 443.40158l-804.4725 0z" fill-rule="evenodd"/><path stroke="#595959" stroke-width="1.0" stroke-linejoin="round" stroke-linecap="butt" d="m87.097115 50.67454l804.4725 0l0 443.40158l-804.4725 0z" fill-rule="evenodd"/><path fill="#eeeeee" d="m87.097115 334.1391l175.77954 0l0 159.93701l-175.77954 0z" fill-rule="evenodd"/><path stroke="#000000" stroke-width="4.0" stroke-linejoin="round" stroke-linecap="butt" d="m87.097115 334.1391l175.77954 0l0 159.93701l-175.77954 0z" fill-rule="evenodd"/><path fill="#eeeeee" d="m715.79004 210.61154l175.77954 0l0 123.52756l-175.77954 0z" fill-rule="evenodd"/><path stroke="#000000" stroke-width="4.0" stroke-linejoin="round" stroke-linecap="butt" d="m715.79004 210.61154l175.77954 0l0 123.52756l-175.77954 0z" fill-rule="evenodd"/><path fill="#eeeeee" d="m715.79004 334.1391l175.77954 0l0 159.93701l-175.77954 0z" fill-rule="evenodd"/><path stroke="#000000" stroke-width="4.0" stroke-linejoin="round" stroke-linecap="butt" d="m715.79004 334.1391l175.77954 0l0 159.93701l-175.77954 0z" fill-rule="evenodd"/><path fill="#eeeeee" d="m87.097115 50.67454l175.77954 0l0 159.937l-175.77954 0z" fill-rule="evenodd"/><path stroke="#000000" stroke-width="4.0" stroke-linejoin="round" stroke-linecap="butt" d="m87.097115 50.67454l175.77954 0l0 159.937l-175.77954 0z" fill-rule="evenodd"/><path fill="#eeeeee" d="m87.097115 210.61154l175.77954 0l0 123.52756l-175.77954 0z" fill-rule="evenodd"/><path stroke="#000000" stroke-width="4.0" stroke-linejoin="round" stroke-linecap="butt" d="m87.097115 210.61154l175.77954 0l0 123.52756l-175.77954 0z" fill-rule="evenodd"/><path fill="#eeeeee" d="m715.79004 50.67454l175.77954 0l0 159.937l-175.77954 0z" fill-rule="evenodd"/><path stroke="#000000" stroke-width="4.0" stroke-linejoin="round" stroke-linecap="butt" d="m715.79004 50.67454l175.77954 0l0 159.937l-175.77954 0z" fill-rule="evenodd"/><path fill="#eeeeee" d="m401.44357 190.0315l175.77951 0l0 159.93701l-175.77951 0z" fill-rule="evenodd"/><path stroke="#000000" stroke-width="4.0" stroke-linejoin="round" stroke-linecap="butt" d="m401.44357 190.0315l175.77951 0l0 159.93701l-175.77951 0z" fill-rule="evenodd"/></g></svg>
