<svg version="1.1" viewBox="0.0 0.0 960.0 540.0" fill="none" stroke="none" stroke-linecap="square" stroke-miterlimit="10" xmlns:xlink="http://www.w3.org/1999/xlink" xmlns="http://www.w3.org/2000/svg"><clipPath id="g36a572ecb4f_0_0.0"><path d="m0 0l960.0 0l0 540.0l-960.0 0l0 -540.0z" clip-rule="nonzero"/></clipPath><g clip-path="url(#g36a572ecb4f_0_0.0)"><path fill="#000000" fill-opacity="0.0" d="m0 0l960.0 0l0 540.0l-960.0 0z" fill-rule="evenodd"/><path fill="#000000" fill-opacity="0.0" d="m87.097115 334.1391l175.77954 0l0 159.93701l-175.77954 0z" fill-rule="evenodd"/><path stroke="#000000" stroke-width="4.0" stroke-linejoin="round" stroke-linecap="butt" d="m87.097115 334.1391l175.77954 0l0 159.93701l-175.77954 0z" fill-rule="evenodd"/><path fill="#000000" fill-opacity="0.0" d="m262.87665 334.1391l175.77951 0l0 159.93701l-175.77951 0z" fill-rule="evenodd"/><path stroke="#000000" stroke-width="4.0" stroke-linejoin="round" stroke-linecap="butt" d="m262.87665 334.1391l175.77951 0l0 159.93701l-175.77951 0z" fill-rule="evenodd"/><path fill="#000000" fill-opacity="0.0" d="m438.65616 334.1391l175.77951 0l0 159.93701l-175.77951 0z" fill-rule="evenodd"/><path stroke="#000000" stroke-width="4.0" stroke-linejoin="round" stroke-linecap="butt" d="m438.65616 334.1391l175.77951 0l0 159.93701l-175.77951 0z" fill-rule="evenodd"/><path fill="#000000" fill-opacity="0.0" d="m614.43567 334.1391l175.77954 0l0 159.93701l-175.77954 0z" fill-rule="evenodd"/><path stroke="#000000" stroke-width="4.0" stroke-linejoin="round" stroke-linecap="butt" d="m614.43567 334.1391l175.77954 0l0 159.93701l-175.77954 0z" fill-rule="evenodd"/><path fill="#000000" fill-opacity="0.0" d="m87.097115 50.67454l175.77954 0l0 159.937l-175.77954 0z" fill-rule="evenodd"/><path stroke="#000000" stroke-width="4.0" stroke-linejoin="round" stroke-linecap="butt" d="m87.097115 50.67454l175.77954 0l0 159.937l-175.77954 0z" fill-rule="evenodd"/><path fill="#000000" fill-opacity="0.0" d="m262.87665 50.67454l175.77951 0l0 159.937l-175.77951 0z" fill-rule="evenodd"/><path stroke="#000000" stroke-width="4.0" stroke-linejoin="round" stroke-linecap="butt" d="m262.87665 50.67454l175.77951 0l0 159.937l-175.77951 0z" fill-rule="evenodd"/><path fill="#000000" fill-opacity="0.0" d="m438.65616 50.67454l175.77951 0l0 159.937l-175.77951 0z" fill-rule="evenodd"/><path stroke="#000000" stroke-width="4.0" stroke-linejoin="round" stroke-linecap="butt" d="m438.65616 50.67454l175.77951 0l0 159.937l-175.77951 0z" fill-rule="evenodd"/><path fill="#000000" fill-opacity="0.0" d="m614.43567 50.67454l175.77954 0l0 159.937l-175.77954 0z" fill-rule="evenodd"/><path stroke="#000000" stroke-width="4.0" stroke-linejoin="round" stroke-linecap="butt" d="m614.43567 50.67454l175.77954 0l0 159.937l-175.77954 0z" fill-rule="evenodd"/><path fill="#000000" fill-opacity="0.0" d="m87.097115 98.18635l175.77954 0l0 64.91338l-175.77954 0z" fill-rule="evenodd"/><path fill="#000000" d="m102.190865 129.26697l2.0 -1.125q1.6875 2.53125 3.4375 6.0625l-2.0625 0.984375q-1.5625 -3.25 -3.375 -5.921875zm14.875 5.828125l-1.9375 -1.140625q1.90625 -2.90625 3.3125 -5.875l2.0625 0.96875q-1.328125 2.765625 -3.4375 6.046875zm-4.171875 -23.140617q5.671875 4.46875 12.78125 7.84375l-0.859375 1.90625q-7.34375 -3.40625 -13.390625 -8.15625q-6.046875 4.75 -13.390625 8.15625l-0.859375 -1.90625q7.109375 -3.375 12.78125 -7.84375l2.9375 0zm-0.25 24.421867l11.8125 0l0 2.03125l-26.0625 0l0 -2.03125l11.8125 0l0 -9.312492l-10.578125 0l0 -2.0l10.578125 0l0 -3.984375l-6.90625 0l0 -1.984375l16.25 0l0 1.984375l-6.90625 0l0 3.984375l10.578125 0l0 2.0l-10.578125 0l0 9.312492zm17.265709 -22.374992l24.34375 0l0 2.171875l-10.921875 0l0 18.828117l11.84375 0l0 2.171875l-26.1875 0l0 -2.171875l11.84375 0l0 -18.828117l-10.921875 0l0 -2.171875zm44.03134 -2.421875l0 5.671875l11.890625 0l0 2.109375l-11.25 0q4.078125 7.984375 12.34375 14.937492l-1.4375 1.71875q-7.5625 -6.375 -11.546875 -13.828117l0 17.109367l-2.40625 0l0 -17.109367q-3.984375 7.4531174 -11.546875 13.828117l-1.4375 -1.71875q8.265625 -6.9531174 12.34375 -14.937492l-11.25 0l0 -2.109375l11.890625 0l0 -5.671875l2.40625 0zm17.281342 2.421875l24.34375 0l0 2.171875l-10.921875 0l0 18.828117l11.84375 0l0 2.171875l-26.1875 0l0 -2.171875l11.84375 0l0 -18.828117l-10.921875 0l0 -2.171875zm50.21884 9.59375q-2.0 -2.359375 -3.125 -3.578125l-6.71875 0q-1.46875 3.03125 -2.390625 4.59375q6.1875 -0.375 12.234375 -1.015625zm-6.171875 8.499992l0 4.15625l12.265625 0l0 2.0l-26.96875 0l0 -2.0l12.265625 0l0 -4.15625l-10.125 0l0 -1.96875l10.125 0l0 -3.0624924l2.4375 0l0 3.0624924l9.90625 0l0 1.96875l-9.90625 0zm0 -18.249992l12.0625 0l0 7.140625l-2.34375 0l0 -5.203125l-21.875 0l0 5.203125l-2.34375 0l0 -7.140625l12.0625 0l0 -2.75l2.4375 0l0 2.75zm-11.09375 6.171875l0 -1.875l19.75 0l0 1.875l-2.765625 0q2.921875 3.1875 5.40625 6.3125l-2.0 1.0625q-0.1875 -0.203125 -0.734375 -0.90625q-0.546875 -0.71875 -0.890625 -1.109375q-11.53125 1.28125 -20.84375 1.5l-0.125 -1.953125q1.40625 -0.03125 4.5625 -0.15625q1.5 -2.515625 2.578125 -4.75l-4.9375 0z" fill-rule="nonzero"/><path fill="#000000" fill-opacity="0.0" d="m301.67978 98.18635l81.35434 0l0 64.91338l-81.35434 0z" fill-rule="evenodd"/><path fill="#000000" d="m315.46103 127.954475q0 6.8906174 5.734375 6.8906174q5.734375 0 5.734375 -6.8906174l0 -13.703125l2.390625 0l0 13.578125q0 4.4687424 -2.109375 6.7968674q-2.09375 2.3125 -6.046875 2.3125q-3.953125 0 -6.078125 -2.3125q-2.109375 -2.328125 -2.109375 -6.7968674l0 -13.578125l2.484375 0l0 13.703125zm25.625793 -14.015625q8.09375 0 8.09375 11.5q0 11.499992 -8.09375 11.499992q-3.828125 0 -5.953125 -2.671875q-2.109375 -2.671875 -2.109375 -8.828117q0 -6.15625 2.109375 -8.828125q2.125 -2.671875 5.953125 -2.671875zm-4.21875 18.749992q1.40625 2.25 4.21875 2.25q2.828125 0 4.234375 -2.25q1.40625 -2.25 1.40625 -7.2499924q0 -5.0 -1.40625 -7.25q-1.40625 -2.25 -4.234375 -2.25q-2.8125 0 -4.21875 2.25q-1.390625 2.25 -1.390625 7.25q0 4.9999924 1.390625 7.2499924zm23.288177 3.9375l0 -19.437492l-0.0625 0l-6.03125 5.578125l-0.953125 -1.984375l7.046875 -6.53125l2.453125 0l0 22.374992l-2.453125 0z" fill-rule="nonzero"/><path fill="#000000" fill-opacity="0.0" d="m485.86877 98.18635l81.35431 0l0 64.91338l-81.35431 0z" fill-rule="evenodd"/><path fill="#000000" d="m499.65002 127.954475q0 6.8906174 5.734375 6.8906174q5.734375 0 5.734375 -6.8906174l0 -13.703125l2.390625 0l0 13.578125q0 4.4687424 -2.109375 6.7968674q-2.09375 2.3125 -6.046875 2.3125q-3.953125 0 -6.078125 -2.3125q-2.109375 -2.328125 -2.109375 -6.7968674l0 -13.578125l2.484375 0l0 13.703125zm25.625793 -14.015625q8.09375 0 8.09375 11.5q0 11.499992 -8.09375 11.499992q-3.828125 0 -5.953125 -2.671875q-2.109375 -2.671875 -2.109375 -8.828117q0 -6.15625 2.109375 -8.828125q2.125 -2.671875 5.953125 -2.671875zm-4.21875 18.749992q1.40625 2.25 4.21875 2.25q2.828125 0 4.234375 -2.25q1.40625 -2.25 1.40625 -7.2499924q0 -5.0 -1.40625 -7.25q-1.40625 -2.25 -4.234375 -2.25q-2.8125 0 -4.21875 2.25q-1.390625 2.25 -1.390625 7.25q0 4.9999924 1.390625 7.2499924zm22.803772 -16.656242q-3.03125 0 -6.078125 2.109375l-0.734375 -1.96875q3.125 -2.234375 7.109375 -2.234375q3.28125 0 5.09375 1.671875q1.8125 1.671875 1.8125 4.6875q0 3.0 -2.1875 6.0625q-2.171875 3.0624924 -8.140625 8.156242l0 0.0625l10.421875 0l0 2.046875l-13.796875 0l0 -2.046875q6.53125 -5.40625 8.84375 -8.421867q2.3125 -3.015625 2.3125 -5.6875q0 -2.171875 -1.1875 -3.296875q-1.171875 -1.140625 -3.46875 -1.140625z" fill-rule="nonzero"/><path fill="#000000" fill-opacity="0.0" d="m642.54596 98.18635l119.55902 0l0 64.91338l-119.55902 0z" fill-rule="evenodd"/><path fill="#000000" d="m670.0616 135.0951l0 1.625l-2.203125 0l0 -10.296867l8.515625 0l0 8.671867l-6.3125 0zm0 -1.78125l4.203125 0l0 -5.0625l-4.203125 0l0 5.0625zm-14.078125 4.78125l0 1.359375l-2.140625 0l0 -9.171875l8.53125 0l0 7.8125l-6.390625 0zm0 -1.921875l4.359375 0l0 -3.9375l-4.359375 0l0 3.9375zm15.09375 -21.562492l-4.6875 0l0 10.21875q0 5.1718674 -0.40625 8.437492q-0.390625 3.265625 -1.34375 5.9375l-2.09375 -1.625q0.859375 -2.578125 1.1875 -5.5625q0.34375 -3.0 0.34375 -8.265617l0 -11.125l16.28125 0l0 22.468742q0 2.640625 -0.453125 3.265625q-0.4375 0.625 -2.328125 0.625q-0.640625 0 -3.015625 -0.15625l-0.078125 -2.046875q1.671875 0.15625 2.5 0.15625q0.796875 0 0.921875 -0.234375q0.125 -0.234375 0.125 -1.546875l0 -20.546867l-4.65625 0l0 2.609375l3.34375 0l0 1.78125l-3.34375 0l0 3.515625l3.796875 0l0 1.84375l-9.890625 0l0 -1.84375l3.796875 0l0 -3.515625l-3.34375 0l0 -1.78125l3.34375 0l0 -2.609375zm-17.234375 0.25l0 -2.0l8.5 0l0 2.0l-8.5 0zm-0.765625 4.359375l0 -2.0625l9.90625 0l0 2.0625l-9.90625 0zm0.984375 4.3125l0 -1.921875l8.15625 0l0 1.921875l-8.15625 0zm0 4.359375l0 -1.96875l8.15625 0l0 1.96875l-8.15625 0zm41.109436 -9.296875l5.265625 0l0 -4.046875l-5.265625 0l0 4.046875zm7.625 7.921875l0 3.6718674l8.125 0l0 1.90625l-8.125 0l0 4.15625l8.625 0l0 2.0l-20.421875 0l0 -2.0l9.4375 0l0 -4.15625l-7.65625 0l0 -1.90625l7.65625 0l0 -3.6718674l-5.265625 0l-2.296875 0l0 -13.890625l17.53125 0l0 13.890625l-7.609375 0zm-2.359375 -1.90625l0 -4.234375l-5.265625 0l0 4.234375l5.265625 0zm2.359375 0l5.3125 0l0 -4.234375l-5.3125 0l0 4.234375zm0 -6.015625l5.3125 0l0 -4.046875l-5.3125 0l0 4.046875zm-10.9375 12.734367l0.3125 2.015625q-4.203125 1.8125 -8.625 3.15625l-0.296875 -2.046875q2.203125 -0.671875 3.34375 -1.078125l0 -8.546867l-2.921875 0l0 -2.09375l2.921875 0l0 -7.015625l-3.21875 0l0 -2.140625l8.359375 0l0 2.140625l-2.78125 0l0 7.015625l2.625 0l0 2.09375l-2.625 0l0 7.6874924q1.5625 -0.609375 2.90625 -1.1875zm43.718872 -7.7343674q-2.0 -2.359375 -3.125 -3.578125l-6.71875 0q-1.46875 3.03125 -2.390625 4.59375q6.1875 -0.375 12.234375 -1.015625zm-6.171875 8.499992l0 4.15625l12.265625 0l0 2.0l-26.96875 0l0 -2.0l12.265625 0l0 -4.15625l-10.125 0l0 -1.96875l10.125 0l0 -3.0624924l2.4375 0l0 3.0624924l9.90625 0l0 1.96875l-9.90625 0zm0 -18.249992l12.0625 0l0 7.140625l-2.34375 0l0 -5.203125l-21.875 0l0 5.203125l-2.34375 0l0 -7.140625l12.0625 0l0 -2.75l2.4375 0l0 2.75zm-11.09375 6.171875l0 -1.875l19.75 0l0 1.875l-2.765625 0q2.921875 3.1875 5.40625 6.3125l-2.0 1.0625q-0.1875 -0.203125 -0.734375 -0.90625q-0.546875 -0.71875 -0.890625 -1.109375q-11.53125 1.28125 -20.84375 1.5l-0.125 -1.953125q1.40625 -0.03125 4.5625 -0.15625q1.5 -2.515625 2.578125 -4.75l-4.9375 0z" fill-rule="nonzero"/><path fill="#000000" fill-opacity="0.0" d="m642.54596 381.6509l119.55902 0l0 64.91339l-119.55902 0z" fill-rule="evenodd"/><path fill="#000000" d="m659.42096 415.79404l0 3.46875l14.90625 0l0 -3.46875l-14.90625 0zm0 -1.890625l14.90625 0l0 -3.3125l-14.90625 0l0 3.3125zm10.296875 -9.359375q1.59375 -2.296875 2.671875 -5.0l-11.0 0q1.21875 2.1875 2.515625 5.0l5.8125 0zm-12.75 4.046875l19.8125 0l0 13.953125l-2.453125 0l0 -1.3125l-14.90625 0l0 1.3125l-2.453125 0l0 -13.953125zm-3.890625 -2.078125l0 -1.96875l8.25 0q-1.234375 -2.625 -2.609375 -5.0l-4.71875 0l0 -1.984375l11.65625 0l0 -3.0l2.4375 0l0 3.0l11.65625 0l0 1.984375l-4.875 0q-0.984375 2.703125 -2.453125 5.0l8.25 0l0 1.96875l-27.59375 0zm40.31256 -2.0625l0 3.4375l8.28125 0l0 -3.4375l-8.28125 0zm0 -1.890625l8.28125 0l0 -3.09375l-8.28125 0l0 3.09375zm1.84375 11.3125l-10.890625 0l0 -2.0625l11.96875 0l0 -1.984375l-2.921875 0l-2.359375 0l0 -12.328125l4.453125 0q0.484375 -1.53125 0.796875 -2.796875l2.421875 0.1875q-0.40625 1.75 -0.71875 2.609375l6.046875 0l0 12.328125l-5.28125 0l0 1.984375l11.96875 0l0 2.0625l-10.890625 0q4.078125 3.515625 11.78125 6.40625l-0.859375 1.984375q-7.796875 -3.09375 -12.0 -6.828125l0 7.328125l-2.4375 0l0 -7.328125q-4.203125 3.734375 -12.0 6.828125l-0.859375 -1.984375q7.703125 -2.890625 11.78125 -6.40625zm-6.53125 -11.25q-2.03125 -1.9375 -5.15625 -4.234375l1.453125 -1.71875q3.125 2.296875 5.171875 4.265625l-1.46875 1.6875zm-5.359375 5.734375q3.546875 -1.625 6.21875 -3.53125l1.078125 1.84375q-2.765625 2.015625 -6.359375 3.640625l-0.9375 -1.953125zm22.984375 -5.765625l-1.46875 -1.65625q2.703125 -2.0 5.15625 -4.234375l1.5 1.625q-2.0625 1.96875 -5.1875 4.265625zm-1.953125 4.109375l1.0625 -1.90625q3.796875 1.71875 6.34375 3.59375l-1.15625 1.890625q-2.765625 -1.984375 -6.25 -3.578125zm31.203247 0.359375q-2.0 -2.359375 -3.125 -3.578125l-6.71875 0q-1.46875 3.03125 -2.390625 4.59375q6.1875 -0.375 12.234375 -1.015625zm-6.171875 8.5l0 4.15625l12.265625 0l0 2.0l-26.96875 0l0 -2.0l12.265625 0l0 -4.15625l-10.125 0l0 -1.96875l10.125 0l0 -3.0625l2.4375 0l0 3.0625l9.90625 0l0 1.96875l-9.90625 0zm0 -18.25l12.0625 0l0 7.140625l-2.34375 0l0 -5.203125l-21.875 0l0 5.203125l-2.34375 0l0 -7.140625l12.0625 0l0 -2.75l2.4375 0l0 2.75zm-11.09375 6.171875l0 -1.875l19.75 0l0 1.875l-2.765625 0q2.921875 3.1875 5.40625 6.3125l-2.0 1.0625q-0.1875 -0.203125 -0.734375 -0.90625q-0.546875 -0.71875 -0.890625 -1.109375q-11.53125 1.28125 -20.84375 1.5l-0.125 -1.953125q1.40625 -0.03125 4.5625 -0.15625q1.5 -2.515625 2.578125 -4.75l-4.9375 0z" fill-rule="nonzero"/><path fill="#000000" fill-opacity="0.0" d="m455.4908 381.6509l142.11026 0l0 64.91339l-142.11026 0z" fill-rule="evenodd"/><path fill="#000000" d="m479.88144 408.23154l0 3.28125l10.046875 0l0 -3.28125l-10.046875 0zm0 -5.0l0 3.15625l10.046875 0l0 -3.15625l-10.046875 0zm0 -1.84375l10.046875 0l0 -3.125l-10.046875 0l0 3.125zm-7.875 -1.21875l3.984375 0l0 2.140625q-1.328125 3.46875 -3.09375 6.09375q2.078125 2.21875 4.09375 4.828125l-1.53125 1.53125q-1.375 -1.78125 -3.453125 -4.140625l0 12.140625l-2.296875 0l0 -10.859375q-1.75 1.75 -3.96875 3.15625l-0.796875 -2.359375q6.078125 -3.953125 8.65625 -10.390625l-7.890625 0l0 -2.140625l4.0 0l0 -4.8125l2.296875 0l0 4.8125zm18.453125 21.921875q-0.859375 0.046875 -1.375 0.046875q-0.46875 0 -1.328125 -0.046875q-1.46875 -0.09375 -1.90625 -0.484375q-0.421875 -0.375 -0.421875 -1.609375l0 -6.4375l-1.9375 0q-0.296875 3.25 -2.5625 5.546875q-2.25 2.296875 -6.265625 3.46875l-0.828125 -2.0625q6.75 -1.921875 7.359375 -6.953125l-1.3125 0l-2.296875 0l0 -17.3125l14.71875 0l0 17.3125l-4.515625 0l0 5.390625q0 0.765625 0.09375 0.921875q0.09375 0.15625 0.578125 0.1875q0.34375 0.03125 1.078125 0.03125q0.796875 0 1.140625 -0.03125q0.359375 -0.03125 0.515625 -0.109375q0.15625 -0.078125 0.296875 -0.609375q0.15625 -0.53125 0.21875 -1.5q0.0625 -0.96875 0.125 -2.96875l2.234375 0.21875q-0.0625 1.75 -0.125 2.75q-0.046875 1.0 -0.234375 1.875q-0.1875 0.859375 -0.375 1.21875q-0.1875 0.375 -0.625 0.671875q-0.4375 0.296875 -0.921875 0.375q-0.46875 0.078125 -1.328125 0.109375zm8.828217 -12.734375l3.28125 0l0 -4.6875l-3.28125 0l0 4.6875zm3.28125 5.921875l0 -4.078125l-3.28125 0l0 4.9375q2.546875 -0.640625 3.28125 -0.859375zm10.78125 -6.15625l3.140625 0l0 -5.375l-3.140625 0l0 5.375zm-5.171875 0l3.125 0l0 -5.375l-3.125 0l0 5.375zm0 1.828125l-2.203125 0l0 -9.015625l7.625 0l0 -2.421875l-8.09375 0l0 -1.09375l-0.859375 0l0 21.640625q1.625 -2.84375 2.578125 -6.71875l2.046875 0.625q-0.9375 4.4375 -3.0625 7.8125l-1.5625 -0.984375l0 2.0625l-2.078125 0l0 -5.46875q-3.828125 1.046875 -6.40625 1.53125l-0.25 -2.046875q0.859375 -0.1875 1.3125 -0.28125l0 -18.171875l-1.0625 0l0 -2.03125l9.5625 0l0 1.140625l7.875 0l0 -2.671875l2.390625 0l0 2.671875l8.59375 0l0 1.984375l-8.59375 0l0 2.421875l7.875 0l0 9.015625l-15.6875 0zm-5.609375 -12.53125l-3.28125 0l0 4.40625l3.28125 0l0 -4.40625zm19.09375 10.703125l0 -5.375l-3.125 0l0 5.375l3.125 0zm-0.515625 8.03125q-0.0625 1.46875 -0.125 2.203125q-0.0625 0.734375 -0.34375 1.453125q-0.265625 0.71875 -0.546875 0.984375q-0.28125 0.265625 -1.046875 0.46875q-0.765625 0.21875 -1.546875 0.25q-0.78125 0.03125 -2.3125 0.03125q-1.375 0 -2.078125 -0.015625q-0.703125 -0.015625 -1.390625 -0.1875q-0.671875 -0.171875 -0.921875 -0.390625q-0.234375 -0.203125 -0.453125 -0.765625q-0.21875 -0.546875 -0.25 -1.140625q-0.03125 -0.59375 -0.03125 -1.734375l0 -5.203125l2.28125 0l0 4.9375q0 1.921875 0.359375 2.234375q0.375 0.328125 2.515625 0.328125q1.109375 0 1.53125 0q0.4375 0 0.984375 -0.171875q0.546875 -0.15625 0.671875 -0.28125q0.125 -0.125 0.296875 -0.6875q0.171875 -0.578125 0.1875 -1.03125q0.015625 -0.453125 0.0625 -1.625l2.15625 0.34375zm-2.265625 -1.90625l-1.390625 1.46875q-1.953125 -2.078125 -4.4375 -4.015625l1.3125 -1.46875q2.265625 1.6875 4.515625 4.015625zm1.125 -1.34375l1.9375 -0.859375q1.921875 3.859375 3.28125 7.90625l-1.90625 0.828125q-1.34375 -4.046875 -3.3125 -7.875zm13.828186 -2.09375l0 2.296875l14.59375 0l0 -2.296875l-14.59375 0zm0 -3.890625l0 2.234375l14.59375 0l0 -2.234375l-14.59375 0zm0 -1.625l14.59375 0l0 -2.203125l-14.59375 0l0 2.203125zm12.875 14.21875q0.515625 0.03125 1.5625 0.03125q1.140625 0 1.6875 -0.03125q0.671875 -0.015625 0.96875 -0.09375q0.296875 -0.078125 0.59375 -0.296875q0.3125 -0.21875 0.40625 -0.875q0.109375 -0.65625 0.203125 -1.5q0.09375 -0.84375 0.1875 -2.5625l2.296875 0.21875q-0.09375 1.8125 -0.1875 2.828125q-0.078125 1.0 -0.3125 1.890625q-0.234375 0.890625 -0.46875 1.25q-0.21875 0.375 -0.796875 0.671875q-0.5625 0.3125 -1.140625 0.375q-0.578125 0.0625 -1.6875 0.09375q-0.640625 0.03125 -1.9375 0.03125q-1.25 0 -1.859375 -0.03125q-2.0625 -0.09375 -2.609375 -0.46875q-0.546875 -0.359375 -0.546875 -1.640625l0 -4.453125l-4.015625 0q-1.265625 5.671875 -10.453125 7.046875l-0.75 -2.046875q7.609375 -1.109375 8.625 -5.0l-2.640625 0l-2.421875 0l0 -13.640625l19.4375 0l0 13.640625l-5.359375 0l0 3.46875q0 0.703125 0.171875 0.890625q0.1875 0.1875 1.046875 0.203125zm5.21875 -19.984375l-21.59375 0l0 5.0625l-2.390625 0l0 -7.015625l5.03125 0q-1.015625 -1.6875 -1.875 -2.953125l2.0625 -0.890625q1.375 1.96875 2.390625 3.84375l4.625 0q-1.09375 -2.03125 -1.953125 -3.25l2.046875 -0.890625q1.40625 2.140625 2.453125 4.140625l3.984375 0q1.46875 -2.15625 2.421875 -4.015625l2.140625 0.640625q-0.765625 1.5 -1.953125 3.375l5.0 0l0 7.015625l-2.390625 0l0 -5.0625zm27.250122 6.53125q-2.0 -2.359375 -3.125 -3.578125l-6.71875 0q-1.46875 3.03125 -2.390625 4.59375q6.1875 -0.375 12.234375 -1.015625zm-6.171875 8.5l0 4.15625l12.265625 0l0 2.0l-26.96875 0l0 -2.0l12.265625 0l0 -4.15625l-10.125 0l0 -1.96875l10.125 0l0 -3.0625l2.4375 0l0 3.0625l9.90625 0l0 1.96875l-9.90625 0zm0 -18.25l12.0625 0l0 7.140625l-2.34375 0l0 -5.203125l-21.875 0l0 5.203125l-2.34375 0l0 -7.140625l12.0625 0l0 -2.75l2.4375 0l0 2.75zm-11.09375 6.171875l0 -1.875l19.75 0l0 1.875l-2.765625 0q2.921875 3.1875 5.40625 6.3125l-2.0 1.0625q-0.1875 -0.203125 -0.734375 -0.90625q-0.546875 -0.71875 -0.890625 -1.109375q-11.53125 1.28125 -20.84375 1.5l-0.125 -1.953125q1.40625 -0.03125 4.5625 -0.15625q1.5 -2.515625 2.578125 -4.75l-4.9375 0z" fill-rule="nonzero"/><path fill="#000000" fill-opacity="0.0" d="m310.08923 381.6509l81.35434 0l0 64.91339l-81.35434 0z" fill-rule="evenodd"/><path fill="#000000" d="m332.05798 399.4034q-4.328125 0 -6.796875 2.578125q-2.46875 2.5625 -2.46875 6.921875q0 4.375 2.5625 6.9375q2.5625 2.5625 6.921875 2.5625q2.71875 0 4.984375 -1.015625l0 -8.359375l-7.75 0l0 -1.96875l10.125 0l0 11.65625q-3.46875 1.6875 -7.578125 1.6875q-5.328125 0 -8.546875 -3.125q-3.203125 -3.140625 -3.203125 -8.375q0 -5.25 3.125 -8.375q3.140625 -3.125 8.4375 -3.125q3.890625 0 6.9375 1.84375l-0.828125 1.8125q-2.765625 -1.65625 -5.921875 -1.65625zm25.573364 0.359375l-9.6875 0l-0.4375 7.234375l0.0625 0q1.8125 -1.0625 4.078125 -1.0625q3.28125 0 5.078125 1.78125q1.8125 1.765625 1.8125 5.015625q0 3.734375 -2.09375 5.703125q-2.09375 1.96875 -6.140625 1.96875q-3.125 0 -5.765625 -1.484375l0.609375 -2.015625q2.578125 1.4375 5.15625 1.4375q5.78125 0 5.78125 -5.609375q0 -2.359375 -1.25 -3.59375q-1.25 -1.25 -3.625 -1.25q-2.421875 0 -4.015625 1.40625l-2.140625 0l0.671875 -11.578125l11.90625 0l0 2.046875zm12.8975525 7.203125q-2.359375 0 -3.890625 1.53125q-1.53125 1.53125 -1.53125 3.921875q0 2.859375 1.4375 4.390625q1.4375 1.53125 3.984375 1.53125q2.609375 0 4.046875 -1.53125q1.4375 -1.53125 1.4375 -4.390625q0 -2.5 -1.484375 -3.96875q-1.484375 -1.484375 -4.0 -1.484375zm0 13.4375q-3.703125 0 -5.8125 -2.234375q-2.09375 -2.25 -2.09375 -6.453125q0 -6.21875 3.015625 -10.015625q3.015625 -3.796875 8.328125 -4.296875l0.421875 2.0625q-7.046875 0.796875 -8.953125 7.9375l0.03125 0.03125q2.125 -2.359375 5.578125 -2.359375q3.40625 0 5.40625 1.984375q2.015625 1.96875 2.015625 5.359375q0 3.65625 -2.171875 5.828125q-2.171875 2.15625 -5.765625 2.15625z" fill-rule="nonzero"/><path fill="#000000" fill-opacity="0.0" d="m134.30971 381.6509l81.35434 0l0 64.91339l-81.35434 0z" fill-rule="evenodd"/><path fill="#000000" d="m156.27846 399.4034q-4.328125 0 -6.796875 2.578125q-2.46875 2.5625 -2.46875 6.921875q0 4.375 2.5625 6.9375q2.5625 2.5625 6.921875 2.5625q2.71875 0 4.984375 -1.015625l0 -8.359375l-7.75 0l0 -1.96875l10.125 0l0 11.65625q-3.46875 1.6875 -7.578125 1.6875q-5.328125 0 -8.546875 -3.125q-3.203125 -3.140625 -3.203125 -8.375q0 -5.25 3.125 -8.375q3.140625 -3.125 8.4375 -3.125q3.890625 0 6.9375 1.84375l-0.828125 1.8125q-2.765625 -1.65625 -5.921875 -1.65625zm25.573349 0.359375l-9.6875 0l-0.4375 7.234375l0.0625 0q1.8125 -1.0625 4.078125 -1.0625q3.28125 0 5.078125 1.78125q1.8125 1.765625 1.8125 5.015625q0 3.734375 -2.09375 5.703125q-2.09375 1.96875 -6.140625 1.96875q-3.125 0 -5.765625 -1.484375l0.609375 -2.015625q2.578125 1.4375 5.15625 1.4375q5.78125 0 5.78125 -5.609375q0 -2.359375 -1.25 -3.59375q-1.25 -1.25 -3.625 -1.25q-2.421875 0 -4.015625 1.40625l-2.140625 0l0.671875 -11.578125l11.90625 0l0 2.046875zm19.006927 0l-9.6875 0l-0.4375 7.234375l0.0625 0q1.8125 -1.0625 4.078125 -1.0625q3.28125 0 5.078125 1.78125q1.8125 1.765625 1.8125 5.015625q0 3.734375 -2.09375 5.703125q-2.09375 1.96875 -6.140625 1.96875q-3.125 0 -5.765625 -1.484375l0.609375 -2.015625q2.578125 1.4375 5.15625 1.4375q5.78125 0 5.78125 -5.609375q0 -2.359375 -1.25 -3.59375q-1.25 -1.25 -3.625 -1.25q-2.421875 0 -4.015625 1.40625l-2.140625 0l0.671875 -11.578125l11.90625 0l0 2.046875z" fill-rule="nonzero"/></g></svg>